<?xml version="1.0" encoding="UTF-8" standalone="no"?>
<svg
   xmlns:dc="http://purl.org/dc/elements/1.1/"
   xmlns:cc="http://creativecommons.org/ns#"
   xmlns:rdf="http://www.w3.org/1999/02/22-rdf-syntax-ns#"
   xmlns:svg="http://www.w3.org/2000/svg"
   xmlns="http://www.w3.org/2000/svg"
   xmlns:sodipodi="http://sodipodi.sourceforge.net/DTD/sodipodi-0.dtd"
   xmlns:inkscape="http://www.inkscape.org/namespaces/inkscape"
   version="1.1"
   id="Layer_1"
   x="0px"
   y="0px"
   width="1080"
   height="60"
   viewBox="0 0 1080 59.999999"
   enable-background="new 0 0 100 100"
   xml:space="preserve"
   inkscape:version="0.48.2 r9819"
   sodipodi:docname="spritesheet_new.svg"
   inkscape:export-filename="/Users/aaronr/github/bboxfinder.com/css/maps/images/spritesheet_new.png"
   inkscape:export-xdpi="45"
   inkscape:export-ydpi="45"><metadata
   id="metadata51"><rdf:RDF><cc:Work
       rdf:about=""><dc:format>image/svg+xml</dc:format><dc:type
         rdf:resource="http://purl.org/dc/dcmitype/StillImage" /><dc:title></dc:title></cc:Work></rdf:RDF></metadata><defs
   id="defs49"><inkscape:perspective
     sodipodi:type="inkscape:persp3d"
     inkscape:vp_x="0 : 50 : 1"
     inkscape:vp_y="0 : 1000 : 0"
     inkscape:vp_z="100 : 50 : 1"
     inkscape:persp3d-origin="50 : 33.333333 : 1"
     id="perspective5373" /></defs><sodipodi:namedview
   pagecolor="#ffffff"
   bordercolor="#666666"
   borderopacity="1"
   objecttolerance="10"
   gridtolerance="10"
   guidetolerance="10"
   inkscape:pageopacity="0"
   inkscape:pageshadow="2"
   inkscape:window-width="1226"
   inkscape:window-height="844"
   id="namedview47"
   showgrid="true"
   inkscape:zoom="0.83039936"
   inkscape:cx="502.47411"
   inkscape:cy="27.069218"
   inkscape:window-x="197"
   inkscape:window-y="15"
   inkscape:window-maximized="0"
   inkscape:current-layer="Layer_1"
   fit-margin-top="0"
   fit-margin-left="0"
   fit-margin-right="0"
   fit-margin-bottom="0"
   borderlayer="false"><inkscape:grid
     type="xygrid"
     id="grid6480"
     empspacing="5"
     visible="true"
     enabled="true"
     snapvisiblegridlinesonly="true" /></sodipodi:namedview>











<path
   inkscape:connector-curvature="0"
   id="path6172"
   d=""
   style="fill:#bbbbbb;fill-opacity:1;stroke-width:20;stroke-miterlimit:4;stroke-dasharray:none" /><path
   inkscape:connector-curvature="0"
   id="path6178"
   d=""
   style="fill:#bbbbbb;fill-opacity:1;stroke-width:20;stroke-miterlimit:4;stroke-dasharray:none" /><path
   inkscape:connector-curvature="0"
   id="path6184"
   d=""
   style="fill:#bbbbbb;fill-opacity:1;stroke-width:20;stroke-miterlimit:4;stroke-dasharray:none" /><path
   inkscape:connector-curvature="0"
   id="path6186"
   d=""
   style="fill:#bbbbbb;fill-opacity:1;stroke-width:20;stroke-miterlimit:4;stroke-dasharray:none" /><path
   inkscape:connector-curvature="0"
   id="path6270"
   d=""
   style="fill:#bbbbbb;fill-opacity:1;stroke-width:20;stroke-miterlimit:4;stroke-dasharray:none" /><path
   inkscape:connector-curvature="0"
   id="path6288"
   d=""
   style="fill:#bbbbbb;fill-opacity:1;stroke-width:20;stroke-miterlimit:4;stroke-dasharray:none" /><path
   inkscape:connector-curvature="0"
   id="path6682"
   d=""
   style="fill:#bbbbbb;fill-opacity:1;stroke-width:20;stroke-miterlimit:4;stroke-dasharray:none" /><path
   inkscape:connector-curvature="0"
   id="path6684"
   d=""
   style="fill:#bbbbbb;fill-opacity:1;stroke-width:20;stroke-miterlimit:4;stroke-dasharray:none" /><g
   style="fill:#464646;fill-opacity:1"
   id="g3558"
   transform="translate(-1.07,-5e-7)">
	<path
   style="fill:#464646;fill-opacity:1"
   inkscape:connector-curvature="0"
   d="m 18,36 v 6 h 6 v -6 h -6 z m 4,4 h -2 v -2 h 2 v 2 z"
   id="path3560" />
	<path
   style="fill:#464646;fill-opacity:1"
   inkscape:connector-curvature="0"
   d="m 36,18 v 6 h 6 v -6 h -6 z m 4,4 h -2 v -2 h 2 v 2 z"
   id="path3562" />
	<polygon
   style="fill:#464646;fill-opacity:1"
   points="20.857,36.854 36.857,20.857 39.142,23.142 23.142,39.145 "
   id="polygon3564" />
</g><polygon
   style="fill:#464646;fill-opacity:1"
   points="100,24.565 97.904,39.396 83.07,42 76,28.773 86.463,18 "
   id="polygon3566"
   transform="translate(-1.07,-5e-7)" /><rect
   style="fill:#464646;fill-opacity:1"
   x="138.92999"
   y="20"
   width="20"
   height="20"
   id="rect3568" /><path
   style="fill:#464646;fill-opacity:1"
   inkscape:connector-curvature="0"
   d="m 219.93,30 c 0,6.078 -4.926,11 -11,11 -6.074,0 -11,-4.922 -11,-11 0,-6.074 4.926,-11 11,-11 6.074,0 11,4.926 11,11 z"
   id="path3570" /><path
   style="fill:#464646;fill-opacity:1"
   inkscape:connector-curvature="0"
   d="m 268.93,19 c -4.971,0 -9,4.028999 -9,9 0,4.971 5.001,12 9,14 4.001,-2 9,-9.029 9,-14 0,-4.971001 -4.029,-9 -9,-9 z m 0,12.5 c -2.484,0 -4.5,-2.014 -4.5,-4.5 0,-2.484001 2.016,-4.5 4.5,-4.5 2.485,0 4.5,2.015999 4.5,4.5 0,2.486 -2.015,4.5 -4.5,4.5 z"
   id="path3572" /><g
   style="fill:#464646;fill-opacity:1"
   id="g3574"
   transform="translate(-1.07,-5e-7)">
	<path
   style="fill:#464646;fill-opacity:1"
   inkscape:connector-curvature="0"
   d="m 337,30.156 v 0.407 5.604 c 0,1.658 -1.344,3 -3,3 h -10 c -1.655,0 -3,-1.342 -3,-3 v -10 c 0,-1.657 1.345,-3 3,-3 h 6.345 l 3.19,-3.17 H 324 c -3.313,0 -6,2.687 -6,6 v 10 c 0,3.313 2.687,6 6,6 h 10 c 3.314,0 6,-2.687 6,-6 v -8.809 l -3,2.968"
   id="path3576" />
	<polygon
   style="fill:#464646;fill-opacity:1"
   points="335.891,21.809 338.719,24.637 329.828,33.529 327,33.529 327,30.699 "
   id="polygon3578" />
	
		<rect
   style="fill:#464646;fill-opacity:1"
   x="338.69699"
   y="17.826"
   transform="matrix(-0.707,-0.7072,0.7072,-0.707,567.5655,274.7729)"
   width="4"
   height="4"
   id="rect3580" />
</g><g
   style="fill:#464646;fill-opacity:1"
   id="g3582"
   transform="translate(-1.07,-5e-7)">
	<path
   style="fill:#464646;fill-opacity:1"
   inkscape:connector-curvature="0"
   d="m 381,42 h 18 V 24 h -18 v 18 z m 14,-16 h 2 v 14 h -2 V 26 z m -4,0 h 2 v 14 h -2 V 26 z m -4,0 h 2 v 14 h -2 V 26 z m -4,0 h 2 v 14 h -2 V 26 z"
   id="path3584" />
	<path
   style="fill:#464646;fill-opacity:1"
   inkscape:connector-curvature="0"
   d="m 395,20 v -2 -2 h -10 v 2 2 h -6 v 2 h 22 v -2 h -6 z m -2,0 h -6 v -2 h 6 v 2 z"
   id="path3586" />
</g><g
   style="opacity:0.4;fill:#464646;fill-opacity:1"
   id="g3588"
   transform="translate(-1.07,-5e-7)">
	<path
   style="fill:#464646;fill-opacity:1"
   inkscape:connector-curvature="0"
   d="m 458,30.156 v 0.407 5.604 c 0,1.658 -1.344,3 -3,3 h -10 c -1.655,0 -3,-1.342 -3,-3 v -10 c 0,-1.657 1.345,-3 3,-3 h 6.345 l 3.19,-3.17 H 445 c -3.313,0 -6,2.687 -6,6 v 10 c 0,3.313 2.687,6 6,6 h 10 c 3.314,0 6,-2.687 6,-6 v -8.809 l -3,2.968"
   id="path3590" />
	<polygon
   style="fill:#464646;fill-opacity:1"
   points="456.891,21.809 459.719,24.637 450.828,33.529 448,33.529 448,30.699 "
   id="polygon3592" />
	
		<rect
   style="fill:#464646;fill-opacity:1"
   x="459.69699"
   y="17.826"
   transform="matrix(-0.707,-0.7072,0.7072,-0.707,774.118,360.3402)"
   width="4"
   height="4"
   id="rect3594" />
</g><g
   style="opacity:0.4;fill:#464646;fill-opacity:1"
   id="g3596"
   transform="translate(-1.07,-5e-7)">
	<path
   style="fill:#464646;fill-opacity:1"
   inkscape:connector-curvature="0"
   d="m 501,42 h 18 V 24 h -18 v 18 z m 14,-16 h 2 v 14 h -2 V 26 z m -4,0 h 2 v 14 h -2 V 26 z m -4,0 h 2 v 14 h -2 V 26 z m -4,0 h 2 v 14 h -2 V 26 z"
   id="path3598" />
	<path
   style="fill:#464646;fill-opacity:1"
   inkscape:connector-curvature="0"
   d="m 515,20 v -2 -2 h -10 v 2 2 h -6 v 2 h 22 v -2 h -6 z m -2,0 h -6 v -2 h 6 v 2 z"
   id="path3600" />
</g><rect
   style="opacity:0.4;fill:#464646;fill-opacity:1;stroke-width:20;stroke-miterlimit:4;stroke-dasharray:none"
   id="rect3684"
   width="540"
   height="60"
   x="542"
   y="1.9999995" /><path
   style="opacity:0.8;fill:#464646;fill-opacity:1;stroke-width:20;stroke-miterlimit:4;stroke-dasharray:none"
   d="m 542.50845,29.920029 0,-29.0322577 268.74579,0 268.74576,0 0,29.0322577 0,29.032258 -268.74576,0 -268.74579,0 0,-29.032258 z"
   id="path3686"
   inkscape:connector-curvature="0" /><g
   transform="translate(540,-1.0000005)"
   id="g3654"
   style="fill:#ffffff;fill-opacity:1">
	<path
   id="path3656"
   d="m 18,36 v 6 h 6 v -6 h -6 z m 4,4 h -2 v -2 h 2 v 2 z"
   inkscape:connector-curvature="0"
   style="fill:#ffffff;fill-opacity:1" />
	<path
   id="path3658"
   d="m 36,18 v 6 h 6 v -6 h -6 z m 4,4 h -2 v -2 h 2 v 2 z"
   inkscape:connector-curvature="0"
   style="fill:#ffffff;fill-opacity:1" />
	<polygon
   id="polygon3660"
   points="36.857,20.857 39.142,23.142 23.142,39.145 20.857,36.854 "
   style="fill:#ffffff;fill-opacity:1" />
</g><polygon
   transform="translate(540,-1.0000005)"
   id="polygon3662"
   points="100,24.565 97.904,39.396 83.07,42 76,28.773 86.463,18 "
   style="fill:#ffffff;fill-opacity:1" /><rect
   id="rect3664"
   height="20"
   width="20"
   y="19"
   x="680"
   style="fill:#ffffff;fill-opacity:1" /><path
   id="path3666"
   d="m 761,29 c 0,6.078001 -4.926,11 -11,11 -6.074,0 -11,-4.921999 -11,-11 0,-6.073999 4.926,-10.999999 11,-10.999999 6.074,0 11,4.926 11,10.999999 z"
   inkscape:connector-curvature="0"
   style="fill:#ffffff;fill-opacity:1" /><path
   id="path3668"
   d="m 810,18.000001 c -4.971,0 -9,4.028999 -9,8.999999 0,4.971001 5.001,12 9,14 4.001,-2 9,-9.028999 9,-14 0,-4.971 -4.029,-8.999999 -9,-8.999999 z M 810,30.5 c -2.484,0 -4.5,-2.013999 -4.5,-4.5 0,-2.483999 2.016,-4.5 4.5,-4.5 2.485,0 4.5,2.016001 4.5,4.5 0,2.486001 -2.015,4.5 -4.5,4.5 z"
   inkscape:connector-curvature="0"
   style="fill:#ffffff;fill-opacity:1" /><g
   transform="translate(540,-1.0000005)"
   id="g3670"
   style="fill:#ffffff;fill-opacity:1">
	<path
   id="path3672"
   d="m 337,30.156 v 0.407 5.604 c 0,1.658 -1.344,3 -3,3 h -10 c -1.655,0 -3,-1.342 -3,-3 v -10 c 0,-1.657 1.345,-3 3,-3 h 6.345 l 3.19,-3.17 H 324 c -3.313,0 -6,2.687 -6,6 v 10 c 0,3.313 2.687,6 6,6 h 10 c 3.314,0 6,-2.687 6,-6 v -8.809 l -3,2.968"
   inkscape:connector-curvature="0"
   style="fill:#ffffff;fill-opacity:1" />
	<polygon
   id="polygon3674"
   points="335.891,21.809 338.719,24.637 329.828,33.529 327,33.529 327,30.699 "
   style="fill:#ffffff;fill-opacity:1" />
	
		<rect
   id="rect3676"
   height="4"
   width="4"
   transform="matrix(-0.707,-0.7072,0.7072,-0.707,567.5655,274.7729)"
   y="17.826"
   x="338.69699"
   style="fill:#ffffff;fill-opacity:1" />
</g><g
   transform="translate(540,-1.0000005)"
   id="g3678"
   style="fill:#ffffff;fill-opacity:1">
	<path
   id="path3680"
   d="m 381,42 h 18 V 24 h -18 v 18 z m 14,-16 h 2 v 14 h -2 V 26 z m -4,0 h 2 v 14 h -2 V 26 z m -4,0 h 2 v 14 h -2 V 26 z m -4,0 h 2 v 14 h -2 V 26 z"
   inkscape:connector-curvature="0"
   style="fill:#ffffff;fill-opacity:1" />
	<path
   id="path3682"
   d="m 395,20 v -2 -2 h -10 v 2 2 h -6 v 2 h 22 v -2 h -6 z m -2,0 h -6 v -2 h 6 v 2 z"
   inkscape:connector-curvature="0"
   style="fill:#ffffff;fill-opacity:1" />
</g></svg>